<?xml version="1.0" encoding="iso-8859-1"?>
<!-- Generator: Adobe Illustrator 19.1.1, SVG Export Plug-In . SVG Version: 6.00 Build 0)  -->
<svg xmlns="http://www.w3.org/2000/svg" xmlns:xlink="http://www.w3.org/1999/xlink" version="1.1" id="Layer_1" x="0px" y="0px" viewBox="0 0 48 48" style="enable-background:new 0 0 48 48;" xml:space="preserve">
<g>
	<path style="fill:#CFD8DC;" d="M24,45c8.04-8.009,14-19.893,14-27c0-2.601-0.254-4.899-0.921-6.315C35.467,6.569,30.119,3,24.057,3   c-6.061,0-11.407,3.57-13.017,8.685C10.369,13.104,10,15.401,10,18C10,25.17,15.961,36.991,24,45z"/>
</g>
<circle style="fill:#FFFFFF;" cx="24" cy="17" r="8"/>
<path style="fill:#FF3D00;" d="M32,17H16c0-4.418,3.582-8,8-8S32,12.582,32,17z"/>
<path style="fill:#455A64;" d="M16,17c0,0.339,0.028,0.672,0.069,1h15.862C31.972,17.672,32,17.339,32,17s-0.028-0.672-0.069-1  H16.069C16.028,16.328,16,16.661,16,17z"/>
<circle style="fill:#455A64;" cx="24" cy="17" r="4"/>
<circle style="fill:#FFFFFF;" cx="24" cy="17" r="2"/>
</svg>
